<?xml version="1.0" standalone="no"?>
<svg xmlns:xlink="http://www.w3.org/1999/xlink" id="wave" style="transform:rotate(0deg); transition: 0.3s" viewBox="0 0 1440 490" version="1.1" xmlns="http://www.w3.org/2000/svg"><defs><linearGradient id="sw-gradient-0" x1="0" x2="0" y1="1" y2="0"><stop stop-color="rgba(0, 0, 225, 1)" offset="0%"/><stop stop-color="rgba(0, 239.383, 231.274, 1)" offset="100%"/></linearGradient></defs><path style="transform:translate(0, 0px); opacity:1" fill="url(#sw-gradient-0)" d="M0,294L34.3,245C68.6,196,137,98,206,81.7C274.3,65,343,131,411,155.2C480,180,549,163,617,138.8C685.7,114,754,82,823,114.3C891.4,147,960,245,1029,302.2C1097.1,359,1166,376,1234,383.8C1302.9,392,1371,392,1440,400.2C1508.6,408,1577,425,1646,375.7C1714.3,327,1783,212,1851,196C1920,180,1989,261,2057,285.8C2125.7,310,2194,278,2263,269.5C2331.4,261,2400,278,2469,310.3C2537.1,343,2606,392,2674,359.3C2742.9,327,2811,212,2880,155.2C2948.6,98,3017,98,3086,81.7C3154.3,65,3223,33,3291,65.3C3360,98,3429,196,3497,253.2C3565.7,310,3634,327,3703,351.2C3771.4,376,3840,408,3909,375.7C3977.1,343,4046,245,4114,171.5C4182.9,98,4251,49,4320,73.5C4388.6,98,4457,196,4526,245C4594.3,294,4663,294,4731,285.8C4800,278,4869,261,4903,253.2L4937.1,245L4937.1,490L4902.9,490C4868.6,490,4800,490,4731,490C4662.9,490,4594,490,4526,490C4457.1,490,4389,490,4320,490C4251.4,490,4183,490,4114,490C4045.7,490,3977,490,3909,490C3840,490,3771,490,3703,490C3634.3,490,3566,490,3497,490C3428.6,490,3360,490,3291,490C3222.9,490,3154,490,3086,490C3017.1,490,2949,490,2880,490C2811.4,490,2743,490,2674,490C2605.7,490,2537,490,2469,490C2400,490,2331,490,2263,490C2194.3,490,2126,490,2057,490C1988.6,490,1920,490,1851,490C1782.9,490,1714,490,1646,490C1577.1,490,1509,490,1440,490C1371.4,490,1303,490,1234,490C1165.7,490,1097,490,1029,490C960,490,891,490,823,490C754.3,490,686,490,617,490C548.6,490,480,490,411,490C342.9,490,274,490,206,490C137.1,490,69,490,34,490L0,490Z"/></svg>